<?xml version="1.0"?>
<svg width="1848" height="887" xmlns="http://www.w3.org/2000/svg" xmlns:svg="http://www.w3.org/2000/svg">

 <g class="layer">
  <title>Layer 1</title>
  <g id="svg_2" transform="matrix(1.15829 0 0 1.15829 0 0)">
   <path class="link" d="m72.3,39.51l180,180" id="svg_3" stroke="rgb(14, 14, 22)" stroke-width="0.5"/>
   <path class="link" d="m72.3,79.51l180,140" id="svg_4" stroke="rgb(14, 14, 22)" stroke-width="0.5"/>
   <path class="link" d="m72.3,119.51l180,100" id="svg_5" stroke="rgb(14, 14, 22)" stroke-width="0.5"/>
   <path class="link" d="m72.3,159.51l180,60" id="svg_6" stroke="rgb(14, 14, 22)" stroke-width="0.5"/>
   <path class="link" d="m72.3,199.51l180,20" id="svg_7" stroke="rgb(14, 14, 22)" stroke-width="0.5"/>
   <path class="link" d="m72.3,239.51l180,-20" id="svg_8" stroke="rgb(14, 14, 22)" stroke-width="0.5"/>
   <path class="link" d="m72.3,279.51l180,-60" id="svg_9" stroke="rgb(14, 14, 22)" stroke-width="0.5"/>
   <path class="link" d="m72.3,319.51l180,-100" id="svg_10" stroke="rgb(14, 14, 22)" stroke-width="0.5"/>
   <path class="link" d="m72.3,359.51l180,-140" id="svg_11" stroke="rgb(14, 14, 22)" stroke-width="0.5"/>
   <path class="link" d="m72.3,399.51l180,-180" id="svg_12" stroke="rgb(14, 14, 22)" stroke-width="0.5"/>
   <path class="link" d="m72.3,439.51l180,-220" id="svg_13" stroke="rgb(14, 14, 22)" stroke-width="0.5"/>
   <path class="link" d="m72.3,479.51l180,-260" id="svg_14" stroke="rgb(14, 14, 22)" stroke-width="0.5"/>
   <path class="link" d="m72.3,519.51l180,-300" id="svg_15" stroke="rgb(14, 14, 22)" stroke-width="0.5"/>
   <path class="link" d="m72.3,559.51l180,-340" id="svg_16" stroke="rgb(14, 14, 22)" stroke-width="0.5"/>
   <path class="link" d="m72.3,599.51l180,-380" id="svg_17" stroke="rgb(14, 14, 22)" stroke-width="0.5"/>
   <path class="link" d="m72.3,39.51l180,220" id="svg_18" stroke="rgb(14, 14, 22)" stroke-width="0.5"/>
   <path class="link" d="m72.3,79.51l180,180" id="svg_19" stroke="rgb(14, 14, 22)" stroke-width="0.5"/>
   <path class="link" d="m72.3,119.51l180,140" id="svg_20" stroke="rgb(14, 14, 22)" stroke-width="0.5"/>
   <path class="link" d="m72.3,159.51l180,100" id="svg_21" stroke="rgb(14, 14, 22)" stroke-width="0.5"/>
   <path class="link" d="m72.3,199.51l180,60" id="svg_22" stroke="rgb(14, 14, 22)" stroke-width="0.5"/>
   <path class="link" d="m72.3,239.51l180,20" id="svg_23" stroke="rgb(14, 14, 22)" stroke-width="0.5"/>
   <path class="link" d="m72.3,279.51l180,-20" id="svg_24" stroke="rgb(14, 14, 22)" stroke-width="0.5"/>
   <path class="link" d="m72.3,319.51l180,-60" id="svg_25" stroke="rgb(14, 14, 22)" stroke-width="0.5"/>
   <path class="link" d="m72.3,359.51l180,-100" id="svg_26" stroke="rgb(14, 14, 22)" stroke-width="0.5"/>
   <path class="link" d="m72.3,399.51l180,-140" id="svg_27" stroke="rgb(14, 14, 22)" stroke-width="0.5"/>
   <path class="link" d="m72.3,439.51l180,-180" id="svg_28" stroke="rgb(14, 14, 22)" stroke-width="0.5"/>
   <path class="link" d="m72.3,479.51l180,-220" id="svg_29" stroke="rgb(14, 14, 22)" stroke-width="0.5"/>
   <path class="link" d="m72.3,519.51l180,-260" id="svg_30" stroke="rgb(14, 14, 22)" stroke-width="0.5"/>
   <path class="link" d="m72.3,559.51l180,-300" id="svg_31" stroke="rgb(14, 14, 22)" stroke-width="0.5"/>
   <path class="link" d="m72.3,599.51l180,-340" id="svg_32" stroke="rgb(14, 14, 22)" stroke-width="0.5"/>
   <path class="link" d="m72.3,39.51l180,260" id="svg_33" stroke="rgb(14, 14, 22)" stroke-width="0.5"/>
   <path class="link" d="m72.3,79.51l180,220" id="svg_34" stroke="rgb(14, 14, 22)" stroke-width="0.5"/>
   <path class="link" d="m72.3,119.51l180,180" id="svg_35" stroke="rgb(14, 14, 22)" stroke-width="0.5"/>
   <path class="link" d="m72.3,159.51l180,140" id="svg_36" stroke="rgb(14, 14, 22)" stroke-width="0.5"/>
   <path class="link" d="m72.3,199.51l180,100" id="svg_37" stroke="rgb(14, 14, 22)" stroke-width="0.5"/>
   <path class="link" d="m72.3,239.51l180,60" id="svg_38" stroke="rgb(14, 14, 22)" stroke-width="0.5"/>
   <path class="link" d="m72.3,279.51l180,20" id="svg_39" stroke="rgb(14, 14, 22)" stroke-width="0.5"/>
   <path class="link" d="m72.3,319.51l180,-20" id="svg_40" stroke="rgb(14, 14, 22)" stroke-width="0.5"/>
   <path class="link" d="m72.3,359.51l180,-60" id="svg_41" stroke="rgb(14, 14, 22)" stroke-width="0.5"/>
   <path class="link" d="m72.3,399.51l180,-100" id="svg_42" stroke="rgb(14, 14, 22)" stroke-width="0.5"/>
   <path class="link" d="m72.3,439.51l180,-140" id="svg_43" stroke="rgb(14, 14, 22)" stroke-width="0.5"/>
   <path class="link" d="m72.3,479.51l180,-180" id="svg_44" stroke="rgb(14, 14, 22)" stroke-width="0.5"/>
   <path class="link" d="m72.3,519.51l180,-220" id="svg_45" stroke="rgb(14, 14, 22)" stroke-width="0.5"/>
   <path class="link" d="m72.3,559.51l180,-260" id="svg_46" stroke="rgb(14, 14, 22)" stroke-width="0.5"/>
   <path class="link" d="m72.3,599.51l180,-300" id="svg_47" stroke="rgb(14, 14, 22)" stroke-width="0.5"/>
   <path class="link" d="m72.3,39.51l180,300" id="svg_48" stroke="rgb(14, 14, 22)" stroke-width="0.5"/>
   <path class="link" d="m72.3,79.51l180,260" id="svg_49" stroke="rgb(14, 14, 22)" stroke-width="0.5"/>
   <path class="link" d="m72.3,119.51l180,220" id="svg_50" stroke="rgb(14, 14, 22)" stroke-width="0.5"/>
   <path class="link" d="m72.3,159.51l180,180" id="svg_51" stroke="rgb(14, 14, 22)" stroke-width="0.5"/>
   <path class="link" d="m72.3,199.51l180,140" id="svg_52" stroke="rgb(14, 14, 22)" stroke-width="0.5"/>
   <path class="link" d="m72.3,239.51l180,100" id="svg_53" stroke="rgb(14, 14, 22)" stroke-width="0.5"/>
   <path class="link" d="m72.3,279.51l180,60" id="svg_54" stroke="rgb(14, 14, 22)" stroke-width="0.5"/>
   <path class="link" d="m72.3,319.51l180,20" id="svg_55" stroke="rgb(14, 14, 22)" stroke-width="0.5"/>
   <path class="link" d="m72.3,359.51l180,-20" id="svg_56" stroke="rgb(14, 14, 22)" stroke-width="0.5"/>
   <path class="link" d="m72.3,399.51l180,-60" id="svg_57" stroke="rgb(14, 14, 22)" stroke-width="0.5"/>
   <path class="link" d="m72.3,439.51l180,-100" id="svg_58" stroke="rgb(14, 14, 22)" stroke-width="0.5"/>
   <path class="link" d="m72.3,479.51l180,-140" id="svg_59" stroke="rgb(14, 14, 22)" stroke-width="0.5"/>
   <path class="link" d="m72.3,519.51l180,-180" id="svg_60" stroke="rgb(14, 14, 22)" stroke-width="0.5"/>
   <path class="link" d="m72.3,559.51l180,-220" id="svg_61" stroke="rgb(14, 14, 22)" stroke-width="0.5"/>
   <path class="link" d="m72.3,599.51l180,-260" id="svg_62" stroke="rgb(14, 14, 22)" stroke-width="0.5"/>
   <path class="link" d="m252.3,219.51l180,40" id="svg_63" stroke="rgb(14, 14, 22)" stroke-width="0.5"/>
   <path class="link" d="m252.3,259.51l180,0" id="svg_64" stroke="rgb(14, 14, 22)" stroke-width="0.5"/>
   <path class="link" d="m252.3,299.51l180,-40" id="svg_65" stroke="rgb(14, 14, 22)" stroke-width="0.5"/>
   <path class="link" d="m252.3,339.51l180,-80" id="svg_66" stroke="rgb(14, 14, 22)" stroke-width="0.5"/>
   <path class="link" d="m252.3,219.51l180,80" id="svg_67" stroke="rgb(14, 14, 22)" stroke-width="0.5"/>
   <path class="link" d="m252.3,259.51l180,40" id="svg_68" stroke="rgb(14, 14, 22)" stroke-width="0.5"/>
   <path class="link" d="m252.3,299.51l180,0" id="svg_69" stroke="rgb(14, 14, 22)" stroke-width="0.5"/>
   <path class="link" d="m252.3,339.51l180,-40" id="svg_70" stroke="rgb(14, 14, 22)" stroke-width="0.5"/>
   <path class="link" d="m252.3,219.51l179,216" id="svg_71" stroke="rgb(14, 14, 22)" stroke-width="0.5"/>
   <path class="link" d="m252.3,259.51l177.5,175.5" id="svg_72" stroke="rgb(14, 14, 22)" stroke-width="0.5"/>
   <path class="link" d="m252.3,299.51l178,133.5" id="svg_73" stroke="rgb(14, 14, 22)" stroke-width="0.5"/>
   <path class="link" d="m245.79,387.65l204.78,0" id="svg_74" stroke="rgb(14, 14, 22)" stroke-width="0.5" transform="rotate(28 348.412 387.65)"/>
   <path class="link" d="m252.3,219.51l180,160" id="svg_75" stroke="rgb(14, 14, 22)" stroke-width="0.5"/>
   <path class="link" d="m252.3,259.51l180,120" id="svg_76" stroke="rgb(14, 14, 22)" stroke-width="0.5"/>
   <path class="link" d="m252.3,299.51l180,80" id="svg_77" stroke="rgb(14, 14, 22)" stroke-width="0.5"/>
   <path class="link" d="m252.3,339.51l180,40" id="svg_78" stroke="rgb(14, 14, 22)" stroke-width="0.5"/>
   <path class="link" d="m72.3,39.51l180,340" id="svg_87" stroke="rgb(14, 14, 22)" stroke-width="0.5"/>
   <path class="link" d="m72.3,79.51l180,300" id="svg_88" stroke="rgb(14, 14, 22)" stroke-width="0.5"/>
   <path class="link" d="m72.3,119.51l180,260" id="svg_89" stroke="rgb(14, 14, 22)" stroke-width="0.5"/>
   <path class="link" d="m72.3,159.51l180,220" id="svg_90" stroke="rgb(14, 14, 22)" stroke-width="0.5"/>
   <path class="link" d="m72.3,199.51l180,180" id="svg_91" stroke="rgb(14, 14, 22)" stroke-width="0.5"/>
   <path class="link" d="m72.3,239.51l180,140" id="svg_92" stroke="rgb(14, 14, 22)" stroke-width="0.5"/>
   <path class="link" d="m72.3,279.51l180,100" id="svg_93" stroke="rgb(14, 14, 22)" stroke-width="0.5"/>
   <path class="link" d="m72.3,319.51l180,60" id="svg_94" stroke="rgb(14, 14, 22)" stroke-width="0.5"/>
   <path class="link" d="m72.3,359.51l180,20" id="svg_95" stroke="rgb(14, 14, 22)" stroke-width="0.5"/>
   <path class="link" d="m72.3,399.51l180,-20" id="svg_96" stroke="rgb(14, 14, 22)" stroke-width="0.5"/>
   <path class="link" d="m72.3,439.51l180,-60" id="svg_97" stroke="rgb(14, 14, 22)" stroke-width="0.5"/>
   <path class="link" d="m72.3,479.51l180,-100" id="svg_98" stroke="rgb(14, 14, 22)" stroke-width="0.5"/>
   <path class="link" d="m72.3,519.51l180,-140" id="svg_99" stroke="rgb(14, 14, 22)" stroke-width="0.5"/>
   <path class="link" d="m72.3,559.51l180,-180" id="svg_100" stroke="rgb(14, 14, 22)" stroke-width="0.5"/>
   <path class="link" d="m72.3,599.51l180,-220" id="svg_101" stroke="rgb(14, 14, 22)" stroke-width="0.5"/>
   <path class="link" d="m252.3,379.51l180,-120" id="svg_102" stroke="rgb(14, 14, 22)" stroke-width="0.5"/>
   <path class="link" d="m252.3,379.51l180,-80" id="svg_103" stroke="rgb(14, 14, 22)" stroke-width="0.5"/>
   <path class="link" d="m252.3,426.62l180,-40" id="svg_104" stroke="rgb(14, 14, 22)" stroke-width="0.5" transform="rotate(30 342.412 406.618)"/>
   <path class="link" d="m252.3,379.51l180,0" id="svg_105" stroke="rgb(14, 14, 22)" stroke-width="0.5"/>
   <path class="link" d="m72.3,39.51l180,380" id="svg_106" stroke="rgb(14, 14, 22)" stroke-width="0.5"/>
   <path class="link" d="m72.3,79.51l180,340" id="svg_107" stroke="rgb(14, 14, 22)" stroke-width="0.5"/>
   <path class="link" d="m72.3,119.51l180,300" id="svg_108" stroke="rgb(14, 14, 22)" stroke-width="0.5"/>
   <path class="link" d="m72.3,159.51l180,260" id="svg_109" stroke="rgb(14, 14, 22)" stroke-width="0.5"/>
   <path class="link" d="m72.3,199.51l180,220" id="svg_110" stroke="rgb(14, 14, 22)" stroke-width="0.5"/>
   <path class="link" d="m72.3,239.51l180,180" id="svg_111" stroke="rgb(14, 14, 22)" stroke-width="0.5"/>
   <path class="link" d="m72.3,279.51l180,140" id="svg_112" stroke="rgb(14, 14, 22)" stroke-width="0.5"/>
   <path class="link" d="m72.3,319.51l180,100" id="svg_113" stroke="rgb(14, 14, 22)" stroke-width="0.5"/>
   <path class="link" d="m72.3,359.51l180,60" id="svg_114" stroke="rgb(14, 14, 22)" stroke-width="0.5"/>
   <path class="link" d="m72.3,399.51l180,20" id="svg_115" stroke="rgb(14, 14, 22)" stroke-width="0.5"/>
   <path class="link" d="m72.3,439.51l180,-20" id="svg_116" stroke="rgb(14, 14, 22)" stroke-width="0.5"/>
   <path class="link" d="m72.3,479.51l180,-60" id="svg_117" stroke="rgb(14, 14, 22)" stroke-width="0.5"/>
   <path class="link" d="m72.3,519.51l180,-100" id="svg_118" stroke="rgb(14, 14, 22)" stroke-width="0.5"/>
   <path class="link" d="m72.3,559.51l180,-140" id="svg_119" stroke="rgb(14, 14, 22)" stroke-width="0.5"/>
   <path class="link" d="m72.3,599.51l180,-180" id="svg_120" stroke="rgb(14, 14, 22)" stroke-width="0.5"/>
   <path class="link" d="m252.3,419.51l180,-160" id="svg_121" stroke="rgb(14, 14, 22)" stroke-width="0.5"/>
   <path class="link" d="m252.3,419.51l180,-120" id="svg_122" stroke="rgb(14, 14, 22)" stroke-width="0.5"/>
   <path class="link" d="m252.3,419.51l180,-40" id="svg_124" stroke="rgb(14, 14, 22)" stroke-width="0.5"/>
   <path class="link" d="m612.3,299.51l180,-80" id="svg_125" stroke="rgb(14, 14, 22)" stroke-width="0.5"/>
   <path class="link" d="m612.3,339.51l180,-120" id="svg_126" stroke="rgb(14, 14, 22)" stroke-width="0.5"/>
   <path class="link" d="m612.3,299.51l180,-40" id="svg_127" stroke="rgb(14, 14, 22)" stroke-width="0.5"/>
   <path class="link" d="m612.3,339.51l180,-80" id="svg_128" stroke="rgb(14, 14, 22)" stroke-width="0.5"/>
   <path class="link" d="m612.3,299.51l180,0" id="svg_129" stroke="rgb(14, 14, 22)" stroke-width="0.5"/>
   <path class="link" d="m612.3,339.51l180,-40" id="svg_130" stroke="rgb(14, 14, 22)" stroke-width="0.5"/>
   <path class="link" d="m612.3,299.51l180,40" id="svg_131" stroke="rgb(14, 14, 22)" stroke-width="0.5"/>
   <path class="link" d="m612.3,339.51l180,0" id="svg_132" stroke="rgb(14, 14, 22)" stroke-width="0.5"/>
   <path class="link" d="m612.3,299.51l180,80" id="svg_133" stroke="rgb(14, 14, 22)" stroke-width="0.5"/>
   <path class="link" d="m612.3,339.51l180,40" id="svg_134" stroke="rgb(14, 14, 22)" stroke-width="0.5"/>
   <path class="link" d="m612.3,299.51l180,120" id="svg_135" stroke="rgb(14, 14, 22)" stroke-width="0.5"/>
   <path class="link" d="m612.3,339.51l180,80" id="svg_136" stroke="rgb(14, 14, 22)" stroke-width="0.5"/>
   <path class="link" d="m792.3,219.51l180,-180" id="svg_137" stroke="rgb(14, 14, 22)" stroke-width="0.5"/>
   <path class="link" d="m792.3,259.51l180,-220" id="svg_138" stroke="rgb(14, 14, 22)" stroke-width="0.5"/>
   <path class="link" d="m792.3,299.51l180,-260" id="svg_139" stroke="rgb(14, 14, 22)" stroke-width="0.5"/>
   <path class="link" d="m792.3,339.51l180,-300" id="svg_140" stroke="rgb(14, 14, 22)" stroke-width="0.5"/>
   <path class="link" d="m792.3,379.51l180,-340" id="svg_141" stroke="rgb(14, 14, 22)" stroke-width="0.5"/>
   <path class="link" d="m792.3,419.51l180,-380" id="svg_142" stroke="rgb(14, 14, 22)" stroke-width="0.5"/>
   <path class="link" d="m792.3,219.51l180,-140" id="svg_143" stroke="rgb(14, 14, 22)" stroke-width="0.5"/>
   <path class="link" d="m792.3,259.51l180,-180" id="svg_144" stroke="rgb(14, 14, 22)" stroke-width="0.5"/>
   <path class="link" d="m792.3,299.51l180,-220" id="svg_145" stroke="rgb(14, 14, 22)" stroke-width="0.5"/>
   <path class="link" d="m792.3,339.51l180,-260" id="svg_146" stroke="rgb(14, 14, 22)" stroke-width="0.5"/>
   <path class="link" d="m792.3,379.51l180,-300" id="svg_147" stroke="rgb(14, 14, 22)" stroke-width="0.5"/>
   <path class="link" d="m792.3,419.51l180,-340" id="svg_148" stroke="rgb(14, 14, 22)" stroke-width="0.5"/>
   <path class="link" d="m792.3,219.51l180,-100" id="svg_149" stroke="rgb(14, 14, 22)" stroke-width="0.5"/>
   <path class="link" d="m792.3,259.51l180,-140" id="svg_150" stroke="rgb(14, 14, 22)" stroke-width="0.5"/>
   <path class="link" d="m792.3,299.51l180,-180" id="svg_151" stroke="rgb(14, 14, 22)" stroke-width="0.5"/>
   <path class="link" d="m792.3,339.51l180,-220" id="svg_152" stroke="rgb(14, 14, 22)" stroke-width="0.5"/>
   <path class="link" d="m792.3,379.51l180,-260" id="svg_153" stroke="rgb(14, 14, 22)" stroke-width="0.5"/>
   <path class="link" d="m792.3,419.51l180,-300" id="svg_154" stroke="rgb(14, 14, 22)" stroke-width="0.5"/>
   <path class="link" d="m792.3,219.51l180,-60" id="svg_155" stroke="rgb(14, 14, 22)" stroke-width="0.5"/>
   <path class="link" d="m792.3,259.51l180,-100" id="svg_156" stroke="rgb(14, 14, 22)" stroke-width="0.5"/>
   <path class="link" d="m792.3,299.51l180,-140" id="svg_157" stroke="rgb(14, 14, 22)" stroke-width="0.5"/>
   <path class="link" d="m792.3,339.51l180,-180" id="svg_158" stroke="rgb(14, 14, 22)" stroke-width="0.5"/>
   <path class="link" d="m792.3,379.51l180,-220" id="svg_159" stroke="rgb(14, 14, 22)" stroke-width="0.5"/>
   <path class="link" d="m792.3,419.51l180,-260" id="svg_160" stroke="rgb(14, 14, 22)" stroke-width="0.5"/>
   <path class="link" d="m792.3,219.51l180,-20" id="svg_161" stroke="rgb(14, 14, 22)" stroke-width="0.5"/>
   <path class="link" d="m792.3,259.51l180,-60" id="svg_162" stroke="rgb(14, 14, 22)" stroke-width="0.5"/>
   <path class="link" d="m792.3,299.51l180,-100" id="svg_163" stroke="rgb(14, 14, 22)" stroke-width="0.5"/>
   <path class="link" d="m792.3,339.51l180,-140" id="svg_164" stroke="rgb(14, 14, 22)" stroke-width="0.5"/>
   <path class="link" d="m792.3,379.51l180,-180" id="svg_165" stroke="rgb(14, 14, 22)" stroke-width="0.5"/>
   <path class="link" d="m792.3,419.51l180,-220" id="svg_166" stroke="rgb(14, 14, 22)" stroke-width="0.5"/>
   <path class="link" d="m792.3,219.51l180,20" id="svg_167" stroke="rgb(14, 14, 22)" stroke-width="0.5"/>
   <path class="link" d="m792.3,259.51l180,-20" id="svg_168" stroke="rgb(14, 14, 22)" stroke-width="0.5"/>
   <path class="link" d="m792.3,299.51l180,-60" id="svg_169" stroke="rgb(14, 14, 22)" stroke-width="0.5"/>
   <path class="link" d="m792.3,339.51l180,-100" id="svg_170" stroke="rgb(14, 14, 22)" stroke-width="0.5"/>
   <path class="link" d="m792.3,379.51l180,-140" id="svg_171" stroke="rgb(14, 14, 22)" stroke-width="0.5"/>
   <path class="link" d="m792.3,419.51l180,-180" id="svg_172" stroke="rgb(14, 14, 22)" stroke-width="0.5"/>
   <path class="link" d="m792.3,219.51l180,60" id="svg_173" stroke="rgb(14, 14, 22)" stroke-width="0.5"/>
   <path class="link" d="m792.3,259.51l180,20" id="svg_174" stroke="rgb(14, 14, 22)" stroke-width="0.5"/>
   <path class="link" d="m792.3,299.51l180,-20" id="svg_175" stroke="rgb(14, 14, 22)" stroke-width="0.5"/>
   <path class="link" d="m792.3,339.51l180,-60" id="svg_176" stroke="rgb(14, 14, 22)" stroke-width="0.5"/>
   <path class="link" d="m792.3,379.51l180,-100" id="svg_177" stroke="rgb(14, 14, 22)" stroke-width="0.5"/>
   <path class="link" d="m792.3,419.51l180,-140" id="svg_178" stroke="rgb(14, 14, 22)" stroke-width="0.5"/>
   <path class="link" d="m792.3,219.51l180,100" id="svg_179" stroke="rgb(14, 14, 22)" stroke-width="0.5"/>
   <path class="link" d="m792.3,259.51l180,60" id="svg_180" stroke="rgb(14, 14, 22)" stroke-width="0.5"/>
   <path class="link" d="m792.3,299.51l180,20" id="svg_181" stroke="rgb(14, 14, 22)" stroke-width="0.5"/>
   <path class="link" d="m792.3,339.51l180,-20" id="svg_182" stroke="rgb(14, 14, 22)" stroke-width="0.5"/>
   <path class="link" d="m792.3,379.51l180,-60" id="svg_183" stroke="rgb(14, 14, 22)" stroke-width="0.5"/>
   <path class="link" d="m792.3,419.51l180,-100" id="svg_184" stroke="rgb(14, 14, 22)" stroke-width="0.5"/>
   <path class="link" d="m792.3,219.51l180,140" id="svg_185" stroke="rgb(14, 14, 22)" stroke-width="0.5"/>
   <path class="link" d="m792.3,259.51l180,100" id="svg_186" stroke="rgb(14, 14, 22)" stroke-width="0.5"/>
   <path class="link" d="m792.3,299.51l180,60" id="svg_187" stroke="rgb(14, 14, 22)" stroke-width="0.5"/>
   <path class="link" d="m792.3,339.51l180,20" id="svg_188" stroke="rgb(14, 14, 22)" stroke-width="0.5"/>
   <path class="link" d="m792.3,379.51l180,-20" id="svg_189" stroke="rgb(14, 14, 22)" stroke-width="0.5"/>
   <path class="link" d="m792.3,419.51l180,-60" id="svg_190" stroke="rgb(14, 14, 22)" stroke-width="0.5"/>
   <path class="link" d="m792.3,219.51l180,180" id="svg_191" stroke="rgb(14, 14, 22)" stroke-width="0.5"/>
   <path class="link" d="m792.3,259.51l180,140" id="svg_192" stroke="rgb(14, 14, 22)" stroke-width="0.5"/>
   <path class="link" d="m792.3,299.51l180,100" id="svg_193" stroke="rgb(14, 14, 22)" stroke-width="0.5"/>
   <path class="link" d="m792.3,339.51l180,60" id="svg_194" stroke="rgb(14, 14, 22)" stroke-width="0.5"/>
   <path class="link" d="m792.3,379.51l180,20" id="svg_195" stroke="rgb(14, 14, 22)" stroke-width="0.5"/>
   <path class="link" d="m792.3,419.51l180,-20" id="svg_196" stroke="rgb(14, 14, 22)" stroke-width="0.5"/>
   <path class="link" d="m792.3,219.51l180,220" id="svg_197" stroke="rgb(14, 14, 22)" stroke-width="0.5"/>
   <path class="link" d="m792.3,259.51l180,180" id="svg_198" stroke="rgb(14, 14, 22)" stroke-width="0.5"/>
   <path class="link" d="m792.3,299.51l180,140" id="svg_199" stroke="rgb(14, 14, 22)" stroke-width="0.5"/>
   <path class="link" d="m792.3,339.51l180,100" id="svg_200" stroke="rgb(14, 14, 22)" stroke-width="0.5"/>
   <path class="link" d="m792.3,379.51l180,60" id="svg_201" stroke="rgb(14, 14, 22)" stroke-width="0.5"/>
   <path class="link" d="m792.3,419.51l180,20" id="svg_202" stroke="rgb(14, 14, 22)" stroke-width="0.5"/>
   <path class="link" d="m792.3,219.51l180,260" id="svg_203" stroke="rgb(14, 14, 22)" stroke-width="0.5"/>
   <path class="link" d="m792.3,259.51l180,220" id="svg_204" stroke="rgb(14, 14, 22)" stroke-width="0.5"/>
   <path class="link" d="m792.3,299.51l180,180" id="svg_205" stroke="rgb(14, 14, 22)" stroke-width="0.5"/>
   <path class="link" d="m792.3,339.51l180,140" id="svg_206" stroke="rgb(14, 14, 22)" stroke-width="0.5"/>
   <path class="link" d="m792.3,379.51l180,100" id="svg_207" stroke="rgb(14, 14, 22)" stroke-width="0.5"/>
   <path class="link" d="m792.3,419.51l180,60" id="svg_208" stroke="rgb(14, 14, 22)" stroke-width="0.5"/>
   <path class="link" d="m792.3,219.51l180,300" id="svg_209" stroke="rgb(14, 14, 22)" stroke-width="0.5"/>
   <path class="link" d="m792.3,259.51l180,260" id="svg_210" stroke="rgb(14, 14, 22)" stroke-width="0.5"/>
   <path class="link" d="m792.3,299.51l180,220" id="svg_211" stroke="rgb(14, 14, 22)" stroke-width="0.5"/>
   <path class="link" d="m792.3,339.51l180,180" id="svg_212" stroke="rgb(14, 14, 22)" stroke-width="0.5"/>
   <path class="link" d="m792.3,379.51l180,140" id="svg_213" stroke="rgb(14, 14, 22)" stroke-width="0.5"/>
   <path class="link" d="m792.3,419.51l180,100" id="svg_214" stroke="rgb(14, 14, 22)" stroke-width="0.5"/>
   <path class="link" d="m792.3,219.51l180,340" id="svg_215" stroke="rgb(14, 14, 22)" stroke-width="0.5"/>
   <path class="link" d="m792.3,259.51l180,300" id="svg_216" stroke="rgb(14, 14, 22)" stroke-width="0.5"/>
   <path class="link" d="m792.3,299.51l180,260" id="svg_217" stroke="rgb(14, 14, 22)" stroke-width="0.5"/>
   <path class="link" d="m792.3,339.51l180,220" id="svg_218" stroke="rgb(14, 14, 22)" stroke-width="0.5"/>
   <path class="link" d="m792.3,379.51l180,180" id="svg_219" stroke="rgb(14, 14, 22)" stroke-width="0.5"/>
   <path class="link" d="m792.3,419.51l180,140" id="svg_220" stroke="rgb(14, 14, 22)" stroke-width="0.5"/>
   <path class="link" d="m792.3,219.51l180,380" id="svg_221" stroke="rgb(14, 14, 22)" stroke-width="0.5"/>
   <path class="link" d="m792.3,259.51l180,340" id="svg_222" stroke="rgb(14, 14, 22)" stroke-width="0.5"/>
   <path class="link" d="m792.3,299.51l180,300" id="svg_223" stroke="rgb(14, 14, 22)" stroke-width="0.5"/>
   <path class="link" d="m792.3,339.51l180,260" id="svg_224" stroke="rgb(14, 14, 22)" stroke-width="0.5"/>
   <path class="link" d="m792.3,379.51l180,220" id="svg_225" stroke="rgb(14, 14, 22)" stroke-width="0.5"/>
   <path class="link" d="m792.3,419.51l180,180" id="svg_226" stroke="rgb(14, 14, 22)" stroke-width="0.5"/>
   <circle class="node" cx="72.3" cy="39.51" fill="rgb(255, 255, 255)" id="0_0" r="10" stroke="rgb(10, 5, 5)"/>
   <circle class="node" cx="72.3" cy="79.51" fill="rgb(255, 255, 255)" id="0_1" r="10" stroke="rgb(10, 5, 5)"/>
   <circle class="node" cx="72.3" cy="119.51" fill="rgb(255, 255, 255)" id="0_2" r="10" stroke="rgb(10, 5, 5)"/>
   <circle class="node" cx="72.3" cy="159.51" fill="rgb(255, 255, 255)" id="0_3" r="10" stroke="rgb(10, 5, 5)"/>
   <circle class="node" cx="72.3" cy="199.51" fill="rgb(255, 255, 255)" id="0_4" r="10" stroke="rgb(10, 5, 5)"/>
   <circle class="node" cx="72.3" cy="239.51" fill="rgb(255, 255, 255)" id="0_5" r="10" stroke="rgb(10, 5, 5)"/>
   <circle class="node" cx="72.3" cy="279.51" fill="rgb(255, 255, 255)" id="0_6" r="10" stroke="rgb(10, 5, 5)"/>
   <circle class="node" cx="72.3" cy="319.51" fill="rgb(255, 255, 255)" id="0_7" r="10" stroke="rgb(10, 5, 5)"/>
   <circle class="node" cx="72.3" cy="359.51" fill="rgb(255, 255, 255)" id="0_8" r="10" stroke="rgb(10, 5, 5)"/>
   <circle class="node" cx="72.3" cy="399.51" fill="rgb(255, 255, 255)" id="0_9" r="10" stroke="rgb(10, 5, 5)"/>
   <circle class="node" cx="72.3" cy="439.51" fill="rgb(255, 255, 255)" id="0_10" r="10" stroke="rgb(10, 5, 5)"/>
   <circle class="node" cx="72.3" cy="479.51" fill="rgb(255, 255, 255)" id="0_11" r="10" stroke="rgb(10, 5, 5)"/>
   <circle class="node" cx="72.3" cy="519.51" fill="rgb(255, 255, 255)" id="0_12" r="10" stroke="rgb(10, 5, 5)"/>
   <circle class="node" cx="72.3" cy="559.51" fill="rgb(255, 255, 255)" id="0_13" r="10" stroke="rgb(10, 5, 5)"/>
   <circle class="node" cx="72.3" cy="599.51" fill="rgb(255, 255, 255)" id="0_14" r="10" stroke="rgb(10, 5, 5)"/>
   <text class="text" font-size="12px" id="svg_227" x="38.3" y="639.51">Input Layer (13k)</text>
   <text class="text" font-size="12px" id="svg_228" x="217.3" y="639.51">Hidden Layer (64)</text>
   <circle class="node" cx="252.3" cy="219.51" fill="rgb(255, 255, 255)" id="1_0" r="10" stroke="rgb(10, 5, 5)"/>
   <circle class="node" cx="252.3" cy="259.51" fill="rgb(255, 255, 255)" id="1_1" r="10" stroke="rgb(10, 5, 5)"/>
   <circle class="node" cx="252.3" cy="299.51" fill="rgb(255, 255, 255)" id="1_2" r="10" stroke="rgb(10, 5, 5)"/>
   <circle class="node" cx="252.3" cy="339.51" fill="rgb(255, 255, 255)" id="1_3" r="10" stroke="rgb(10, 5, 5)"/>
   <circle class="node" cx="252.3" cy="379.51" fill="rgb(255, 255, 255)" id="1_4" r="10" stroke="rgb(10, 5, 5)"/>
   <circle class="node" cx="252.3" cy="419.51" fill="rgb(255, 255, 255)" id="1_5" r="10" stroke="rgb(10, 5, 5)"/>
   <circle class="node" cx="432.3" cy="259.51" fill="rgb(255, 255, 255)" id="2_0" r="10" stroke="rgb(10, 5, 5)"/>
   <text class="text" font-size="12px" id="svg_229" x="397.3" y="639.51">Encoder out (2+2)</text>
   <circle class="node" cx="432.3" cy="299.51" fill="rgb(255, 255, 255)" id="2_1" r="10" stroke="rgb(10, 5, 5)"/>
   <circle class="node" cx="432.8" cy="379.51" fill="rgb(255, 255, 255)" id="2_2" r="10" stroke="rgb(10, 5, 5)"/>
   <circle class="node" cx="432.3" cy="434.51" fill="rgb(255, 255, 255)" id="2_3" r="10" stroke="rgb(10, 5, 5)" transform="rotate(15.8086 432.294 434.513)"/>
   <circle class="node" cx="612.3" cy="299.51" fill="rgb(255, 255, 255)" id="3_0" r="10" stroke="rgb(10, 5, 5)"/>
   <text class="text" font-size="12px" id="svg_230" x="577.3" y="639.51">Decoder in (2)</text>
   <circle class="node" cx="612.3" cy="339.51" fill="rgb(255, 255, 255)" id="3_1" r="10" stroke="rgb(10, 5, 5)"/>
   <circle class="node" cx="792.3" cy="219.51" fill="rgb(255, 255, 255)" id="4_0" r="10" stroke="rgb(10, 5, 5)"/>
   <text class="text" font-size="12px" id="svg_231" x="757.3" y="639.51">Hidden Layer (64)</text>
   <circle class="node" cx="792.3" cy="259.51" fill="rgb(255, 255, 255)" id="4_1" r="10" stroke="rgb(10, 5, 5)"/>
   <circle class="node" cx="792.3" cy="299.51" fill="rgb(255, 255, 255)" id="4_2" r="10" stroke="rgb(10, 5, 5)"/>
   <circle class="node" cx="792.3" cy="339.51" fill="rgb(255, 255, 255)" id="4_3" r="10" stroke="rgb(10, 5, 5)"/>
   <circle class="node" cx="792.3" cy="379.51" fill="rgb(255, 255, 255)" id="4_4" r="10" stroke="rgb(10, 5, 5)"/>
   <circle class="node" cx="792.3" cy="419.51" fill="rgb(255, 255, 255)" id="4_5" r="10" stroke="rgb(10, 5, 5)"/>
   <circle class="node" cx="972.3" cy="39.51" fill="rgb(255, 255, 255)" id="5_0" r="10" stroke="rgb(10, 5, 5)"/>
   <text class="text" font-size="12px" id="svg_232" x="937.3" y="639.51">Output Layer (13k)</text>
   <circle class="node" cx="972.3" cy="79.51" fill="rgb(255, 255, 255)" id="5_1" r="10" stroke="rgb(10, 5, 5)"/>
   <circle class="node" cx="972.3" cy="119.51" fill="rgb(255, 255, 255)" id="5_2" r="10" stroke="rgb(10, 5, 5)"/>
   <circle class="node" cx="972.3" cy="159.51" fill="rgb(255, 255, 255)" id="5_3" r="10" stroke="rgb(10, 5, 5)"/>
   <circle class="node" cx="972.3" cy="199.51" fill="rgb(255, 255, 255)" id="5_4" r="10" stroke="rgb(10, 5, 5)"/>
   <circle class="node" cx="972.3" cy="239.51" fill="rgb(255, 255, 255)" id="5_5" r="10" stroke="rgb(10, 5, 5)"/>
   <circle class="node" cx="972.3" cy="279.51" fill="rgb(255, 255, 255)" id="5_6" r="10" stroke="rgb(10, 5, 5)"/>
   <circle class="node" cx="972.3" cy="319.51" fill="rgb(255, 255, 255)" id="5_7" r="10" stroke="rgb(10, 5, 5)"/>
   <circle class="node" cx="972.3" cy="359.51" fill="rgb(255, 255, 255)" id="5_8" r="10" stroke="rgb(10, 5, 5)"/>
   <circle class="node" cx="972.3" cy="399.51" fill="rgb(255, 255, 255)" id="5_9" r="10" stroke="rgb(10, 5, 5)"/>
   <circle class="node" cx="972.3" cy="439.51" fill="rgb(255, 255, 255)" id="5_10" r="10" stroke="rgb(10, 5, 5)"/>
   <circle class="node" cx="972.3" cy="479.51" fill="rgb(255, 255, 255)" id="5_11" r="10" stroke="rgb(10, 5, 5)"/>
   <circle class="node" cx="972.3" cy="519.51" fill="rgb(255, 255, 255)" id="5_12" r="10" stroke="rgb(10, 5, 5)"/>
   <circle class="node" cx="972.3" cy="559.51" fill="rgb(255, 255, 255)" id="5_13" r="10" stroke="rgb(10, 5, 5)"/>
   <circle class="node" cx="972.3" cy="599.51" fill="rgb(255, 255, 255)" id="5_14" r="10" stroke="rgb(10, 5, 5)"/>
   <text font-size="9" id="svg_233" stroke="rgb(14, 14, 22)" text-anchor="middle" transform="matrix(1.37562 0 0 1.14157 -386.261 -48.1576)" x="594.41" xml:space="preserve" y="271.47">μ1</text>
   <text font-size="9" id="svg_234" stroke="rgb(14, 14, 22)" text-anchor="middle" transform="matrix(1.37562 0 0 1.14157 -386.261 -48.1576)" x="595.13" xml:space="preserve" y="307.73">μ2</text>
   <text font-size="9" id="svg_235" stroke="rgb(14, 14, 22)" text-anchor="middle" transform="matrix(1.37562 0 0 1.14157 -386.261 -48.1576)" x="595.5" xml:space="preserve" y="377.37">σ1</text>
   <text font-size="9" id="svg_237" stroke="rgb(14, 14, 22)" text-anchor="middle" transform="matrix(1.37562 0 0 1.14157 -386.261 -48.1576)" x="595.13" xml:space="preserve" y="425.11">σ2</text>
  </g>
  <text font-size="16" id="svg_238" stroke="rgb(14, 14, 22)" text-anchor="middle" x="1160.89" xml:space="preserve" y="385.22">X&#x27;</text>
  <text font-size="16" id="svg_239" stroke="rgb(14, 14, 22)" text-anchor="middle" x="43" xml:space="preserve" y="364.11">X</text>
  <text font-size="14" id="svg_241" stroke="rgb(14, 14, 22)" text-anchor="middle" transform="matrix(0.962448 0 0 1.27085 61.9956 -113.626)" x="673.03" xml:space="preserve" y="367.21">z1</text>
  <text font-size="14" id="svg_242" stroke="rgb(14, 14, 22)" text-anchor="middle" transform="matrix(0.962448 0 0 1.27085 61.9956 -113.626)" x="671.9" xml:space="preserve" y="403.58">z2</text>
 </g>
</svg>